<?xml version="1.0" standalone="no"?>
<!DOCTYPE svg PUBLIC "-//W3C//DTD SVG 20010904//EN"
 "http://www.w3.org/TR/2001/REC-SVG-20010904/DTD/svg10.dtd">
<svg version="1.0" xmlns="http://www.w3.org/2000/svg"
 width="700.000000pt" height="700.000000pt" viewBox="0 0 700.000000 700.000000"
 preserveAspectRatio="xMidYMid meet">
<metadata>
Created by potrace 1.11, written by Peter Selinger 2001-2013
</metadata>
<g transform="translate(0.000000,700.000000) scale(0.100000,-0.100000)"
fill="#000000" stroke="none">
<path d="M3245 6544 c-780 -80 -1431 -393 -1958 -943 -435 -454 -707 -1014
-809 -1661 -19 -126 -22 -183 -22 -440 0 -318 13 -447 70 -690 266 -1136 1148
-2018 2284 -2284 243 -57 372 -70 690 -70 318 0 447 13 690 70 1136 266 2018
1148 2284 2284 57 243 70 372 70 690 0 318 -13 447 -70 690 -266 1136 -1148
2018 -2284 2284 -219 52 -367 68 -645 71 -143 2 -278 1 -300 -1z m345 -1239
l0 -254 33 -5 c17 -3 70 -8 117 -11 157 -12 391 -56 563 -106 l67 -20 0 -189
c0 -105 -2 -190 -5 -190 -2 0 -44 17 -92 39 -191 83 -397 135 -615 155 l-68 7
0 -479 0 -479 74 -12 c188 -31 418 -107 549 -183 145 -84 255 -208 307 -345
73 -191 63 -449 -25 -638 -120 -262 -377 -417 -782 -472 l-123 -17 0 -338 0
-338 -110 0 -110 0 0 335 0 335 -22 4 c-13 3 -70 7 -128 10 -217 11 -536 86
-743 175 l-47 20 0 196 c0 107 2 195 5 195 3 0 26 -13 53 -30 80 -49 271 -137
367 -169 126 -42 281 -72 408 -78 l107 -6 0 507 c0 397 -3 507 -12 510 -7 3
-69 16 -137 31 -453 97 -686 269 -767 565 -28 99 -25 319 4 423 92 323 357
516 788 574 l124 16 0 259 0 258 110 0 110 0 0 -255z"/>
<path d="M3266 4714 c-153 -33 -292 -109 -349 -191 -61 -88 -72 -129 -72 -258
0 -112 2 -124 29 -180 53 -108 148 -177 313 -229 44 -14 104 -28 132 -32 l51
-7 0 457 c0 428 -1 456 -17 455 -10 0 -49 -7 -87 -15z"/>
<path d="M3590 2907 l0 -485 72 14 c240 46 382 134 455 281 37 75 38 80 38
187 0 93 -4 121 -24 171 -57 144 -253 264 -503 309 l-38 7 0 -484z"/>
</g>
</svg>
